<?xml version="1.0" standalone="no"?>
<!DOCTYPE svg PUBLIC "-//W3C//DTD SVG 20010904//EN"
 "http://www.w3.org/TR/2001/REC-SVG-20010904/DTD/svg10.dtd">
<svg version="1.0" xmlns="http://www.w3.org/2000/svg"
 width="800.000000pt" height="600.000000pt" viewBox="0 0 800.000000 600.000000"
 preserveAspectRatio="xMidYMid meet">
<metadata>
Created by potrace 1.15, written by Peter Selinger 2001-2017
</metadata>
<g transform="translate(0.000000,600.000000) scale(0.100000,-0.100000)"
fill="#000000" stroke="none">
<path d="M3845 4819 c-153 -17 -287 -114 -357 -257 -31 -63 -33 -73 -33 -177
0 -103 2 -114 32 -178 43 -90 128 -175 219 -219 l69 -34 3 -72 3 -72 -578 0
c-318 -1 -608 -5 -644 -9 -141 -18 -258 -103 -317 -228 -26 -55 -27 -67 -30
-231 l-3 -172 -62 -31 c-85 -43 -170 -128 -209 -207 -28 -56 -33 -78 -36 -157
-5 -106 11 -169 60 -248 39 -62 118 -132 189 -168 l57 -28 4 -129 c3 -121 5
-131 36 -194 22 -46 50 -82 88 -115 30 -26 94 -86 142 -133 48 -48 133 -116
189 -153 l102 -67 -169 -262 c-93 -144 -168 -263 -167 -264 6 -6 635 242 631
248 -3 4 2 5 10 2 9 -3 16 -1 16 6 0 6 4 9 9 6 5 -4 51 10 103 30 96 38 188
58 188 41 0 -5 16 -7 35 -4 24 4 33 2 29 -5 -5 -7 9 -9 44 -6 31 3 49 1 46 -4
-4 -6 25 -9 72 -7 44 2 85 -1 92 -5 17 -10 334 3 327 14 -3 4 16 5 42 2 27 -3
44 -1 40 4 -3 5 12 8 34 6 21 -2 39 0 39 4 0 5 23 10 52 12 29 1 55 7 59 13 4
7 11 9 17 5 13 -8 152 25 152 37 0 4 4 6 9 3 11 -7 172 46 274 91 89 39 191
96 276 155 58 40 241 199 298 258 70 73 103 176 103 326 0 83 0 84 28 90 83
20 197 107 250 191 49 79 65 142 60 247 -5 115 -34 182 -114 266 -54 56 -173
130 -210 130 -11 0 -14 26 -14 123 0 213 -27 301 -120 394 -63 63 -137 100
-225 113 -39 5 -287 10 -557 10 l-488 0 0 73 0 72 70 33 c120 56 213 164 244
287 39 146 1 294 -102 399 -114 118 -241 163 -407 145z m223 -142 c75 -39 127
-90 159 -155 23 -48 28 -70 28 -137 0 -69 -4 -88 -29 -138 -52 -101 -139 -166
-253 -187 -208 -37 -399 107 -411 310 -6 96 24 169 98 241 82 79 138 100 260
96 80 -3 103 -7 148 -30z m1087 -1011 c58 -26 109 -80 139 -145 21 -45 21 -56
21 -726 0 -669 0 -681 -21 -725 -28 -61 -66 -103 -122 -137 l-47 -28 -1294 -3
-1294 -2 -51 23 c-59 27 -116 81 -143 135 -17 35 -18 82 -21 717 -2 446 1 692
7 715 24 81 106 168 180 190 14 5 604 9 1311 9 l1285 1 50 -24z m410 -693
c157 -153 113 -407 -87 -509 l-48 -24 0 309 0 310 41 -17 c22 -9 65 -40 94
-69z m-3355 -223 c0 -159 -3 -290 -7 -290 -16 0 -69 38 -104 74 -85 88 -112
215 -69 329 29 76 123 172 173 176 4 1 7 -129 7 -289z"/>
<path d="M3116 3236 c-39 -15 -99 -66 -118 -101 -53 -97 -8 -224 97 -275 190
-92 395 118 281 290 -52 79 -172 118 -260 86z m146 -106 c40 -31 53 -73 39
-121 -36 -121 -221 -93 -221 34 1 67 43 106 116 107 26 0 50 -7 66 -20z"/>
<path d="M4366 3236 c-42 -16 -101 -67 -120 -106 -51 -100 0 -232 106 -275
154 -62 326 57 304 211 -17 128 -167 216 -290 170z m147 -107 c39 -30 53 -85
34 -131 -47 -113 -217 -75 -217 48 0 39 5 51 31 75 40 37 111 41 152 8z"/>
<path d="M3412 2523 c-13 -25 1 -111 28 -162 26 -53 87 -114 138 -140 107 -54
426 -55 531 -2 50 26 113 92 142 149 30 59 33 149 7 166 -28 17 -52 -5 -60
-55 -9 -62 -22 -91 -60 -134 -58 -67 -88 -75 -293 -75 -153 0 -186 3 -220 19
-77 35 -118 94 -141 206 -8 33 -13 41 -36 43 -18 2 -30 -3 -36 -15z"/>
</g>
</svg>
